<mxfile host="app.diagrams.net" agent="Mozilla/5.0 (Windows NT 10.0; Win64; x64) AppleWebKit/537.36 (KHTML, like Gecko) Chrome/138.0.0.0 Safari/537.36" version="28.0.4">
  <diagram name="Page-1" id="5v2ZWDQqbhzC2i-hjf4o">
    <mxGraphModel dx="1665" dy="783" grid="0" gridSize="10" guides="1" tooltips="1" connect="1" arrows="1" fold="1" page="1" pageScale="1" pageWidth="850" pageHeight="1100" math="0" shadow="0" adaptiveColors="simple">
      <root>
        <mxCell id="0" />
        <mxCell id="1" parent="0" />
        <mxCell id="Qf1n-6LqZpKv2LMZS_Yj-6" style="edgeStyle=orthogonalEdgeStyle;rounded=0;orthogonalLoop=1;jettySize=auto;html=1;" parent="1" source="Qf1n-6LqZpKv2LMZS_Yj-2" target="Qf1n-6LqZpKv2LMZS_Yj-12" edge="1">
          <mxGeometry relative="1" as="geometry">
            <mxPoint x="420" y="610" as="targetPoint" />
          </mxGeometry>
        </mxCell>
        <mxCell id="Qf1n-6LqZpKv2LMZS_Yj-2" value="" style="points=[[0.03,0.03,0],[0.5,0,0],[0.97,0.03,0],[1,0.4,0],[0.97,0.745,0],[0.5,1,0],[0.03,0.745,0],[0,0.4,0]];verticalLabelPosition=bottom;sketch=0;html=1;verticalAlign=top;aspect=fixed;align=center;pointerEvents=1;shape=mxgraph.cisco19.workstation;fillColor=#005073;strokeColor=none;" parent="1" vertex="1">
          <mxGeometry x="240" y="580" width="100" height="80" as="geometry" />
        </mxCell>
        <mxCell id="Qf1n-6LqZpKv2LMZS_Yj-10" value="" style="edgeStyle=orthogonalEdgeStyle;rounded=0;orthogonalLoop=1;jettySize=auto;html=1;entryX=0;entryY=0.5;entryDx=0;entryDy=0;" parent="1" target="gsvBftsWmA4iTi50btW6-4" edge="1">
          <mxGeometry relative="1" as="geometry">
            <mxPoint x="565" y="380" as="targetPoint" />
            <mxPoint x="345" y="270" as="sourcePoint" />
          </mxGeometry>
        </mxCell>
        <mxCell id="Qf1n-6LqZpKv2LMZS_Yj-8" style="rounded=0;orthogonalLoop=1;jettySize=auto;html=1;" parent="1" source="Qf1n-6LqZpKv2LMZS_Yj-4" target="Qf1n-6LqZpKv2LMZS_Yj-2" edge="1">
          <mxGeometry relative="1" as="geometry" />
        </mxCell>
        <mxCell id="Qf1n-6LqZpKv2LMZS_Yj-4" value="" style="fontColor=#0066CC;verticalAlign=top;verticalLabelPosition=bottom;labelPosition=center;align=center;html=1;outlineConnect=0;fillColor=#CCCCCC;strokeColor=#6881B3;gradientColor=none;gradientDirection=north;strokeWidth=2;shape=mxgraph.networks.virus;" parent="1" vertex="1">
          <mxGeometry x="46" y="490" width="100" height="90" as="geometry" />
        </mxCell>
        <mxCell id="Qf1n-6LqZpKv2LMZS_Yj-13" value="&lt;b&gt;&lt;font style=&quot;font-size: 14px;&quot;&gt;CLIENT SYSTEM&lt;/font&gt;&lt;/b&gt;" style="text;html=1;align=center;verticalAlign=middle;resizable=0;points=[];autosize=1;strokeColor=none;fillColor=none;" parent="1" vertex="1">
          <mxGeometry x="220" y="670" width="140" height="30" as="geometry" />
        </mxCell>
        <mxCell id="Qf1n-6LqZpKv2LMZS_Yj-14" value="&lt;font style=&quot;font-size: 14px;&quot;&gt;&lt;b&gt;LaZagne&amp;nbsp;&lt;/b&gt;&lt;/font&gt;&lt;div&gt;&lt;br&gt;&lt;/div&gt;" style="text;html=1;align=center;verticalAlign=middle;resizable=0;points=[];autosize=1;strokeColor=none;fillColor=none;" parent="1" vertex="1">
          <mxGeometry x="48" y="575" width="80" height="40" as="geometry" />
        </mxCell>
        <mxCell id="Qf1n-6LqZpKv2LMZS_Yj-15" value="&lt;b&gt;&lt;font style=&quot;font-size: 14px;&quot;&gt;VIRUSTOTAL API&lt;/font&gt;&lt;/b&gt;" style="text;html=1;align=center;verticalAlign=middle;resizable=0;points=[];autosize=1;strokeColor=none;fillColor=none;" parent="1" vertex="1">
          <mxGeometry x="568" y="517" width="140" height="30" as="geometry" />
        </mxCell>
        <mxCell id="Qf1n-6LqZpKv2LMZS_Yj-16" value="" style="shape=image;html=1;verticalAlign=top;verticalLabelPosition=bottom;labelBackgroundColor=#ffffff;imageAspect=0;aspect=fixed;image=https://cdn2.iconfinder.com/data/icons/social-media-2285/512/1_Slack_colored_svg-128.png" parent="1" vertex="1">
          <mxGeometry x="588" y="594" width="100" height="100" as="geometry" />
        </mxCell>
        <mxCell id="Qf1n-6LqZpKv2LMZS_Yj-24" style="edgeStyle=orthogonalEdgeStyle;rounded=0;orthogonalLoop=1;jettySize=auto;html=1;entryX=1;entryY=0.5;entryDx=0;entryDy=0;exitX=0;exitY=0.5;exitDx=0;exitDy=0;" parent="1" source="Qf1n-6LqZpKv2LMZS_Yj-16" target="Qf1n-6LqZpKv2LMZS_Yj-23" edge="1">
          <mxGeometry relative="1" as="geometry">
            <mxPoint x="591.98" y="524.04" as="sourcePoint" />
          </mxGeometry>
        </mxCell>
        <mxCell id="Qf1n-6LqZpKv2LMZS_Yj-20" style="edgeStyle=orthogonalEdgeStyle;rounded=0;orthogonalLoop=1;jettySize=auto;html=1;entryX=0.5;entryY=0;entryDx=0;entryDy=0;" parent="1" source="Qf1n-6LqZpKv2LMZS_Yj-15" target="Qf1n-6LqZpKv2LMZS_Yj-16" edge="1">
          <mxGeometry relative="1" as="geometry">
            <mxPoint x="638" y="546" as="sourcePoint" />
            <mxPoint x="632.9839999999999" y="466.98" as="targetPoint" />
          </mxGeometry>
        </mxCell>
        <mxCell id="Qf1n-6LqZpKv2LMZS_Yj-23" value="&lt;font style=&quot;&quot;&gt;&lt;b style=&quot;&quot;&gt;&lt;font style=&quot;font-size: 12px;&quot;&gt;QUARANTINE&lt;/font&gt;&lt;span style=&quot;font-size: 11px;&quot;&gt;&amp;nbsp;&lt;/span&gt;&lt;/b&gt;&lt;/font&gt;&lt;div&gt;&lt;font style=&quot;font-size: 12px;&quot;&gt;&lt;b style=&quot;&quot;&gt;YES/NO&lt;/b&gt;&lt;/font&gt;&lt;/div&gt;" style="rhombus;whiteSpace=wrap;html=1;align=center;" parent="1" vertex="1">
          <mxGeometry x="370" y="439" width="125" height="96" as="geometry" />
        </mxCell>
        <mxCell id="Qf1n-6LqZpKv2LMZS_Yj-26" value="&lt;font style=&quot;font-size: 14px;&quot;&gt;&lt;b style=&quot;&quot;&gt;YES&lt;/b&gt;&lt;/font&gt;" style="text;html=1;align=center;verticalAlign=middle;resizable=0;points=[];autosize=1;strokeColor=none;fillColor=none;" parent="1" vertex="1">
          <mxGeometry x="427" y="385" width="46" height="29" as="geometry" />
        </mxCell>
        <mxCell id="Qf1n-6LqZpKv2LMZS_Yj-28" value="&lt;font style=&quot;font-size: 14px;&quot;&gt;&lt;b&gt;MARKED AS FALSE POSITIVE&lt;/b&gt;&lt;/font&gt;" style="shape=note;whiteSpace=wrap;html=1;backgroundOutline=1;fontColor=#000000;darkOpacity=0.05;fillColor=#FFF9B2;strokeColor=none;fillStyle=solid;direction=west;gradientDirection=north;gradientColor=#FFF2A1;shadow=1;size=20;pointerEvents=1;" parent="1" vertex="1">
          <mxGeometry x="387.5" y="580" width="90" height="110" as="geometry" />
        </mxCell>
        <mxCell id="Qf1n-6LqZpKv2LMZS_Yj-29" style="edgeStyle=orthogonalEdgeStyle;rounded=0;orthogonalLoop=1;jettySize=auto;html=1;exitX=0.5;exitY=1;exitDx=0;exitDy=0;entryX=0.5;entryY=1;entryDx=0;entryDy=0;entryPerimeter=0;" parent="1" source="Qf1n-6LqZpKv2LMZS_Yj-23" target="Qf1n-6LqZpKv2LMZS_Yj-28" edge="1">
          <mxGeometry relative="1" as="geometry" />
        </mxCell>
        <mxCell id="Qf1n-6LqZpKv2LMZS_Yj-30" value="&lt;b&gt;&lt;font style=&quot;font-size: 14px;&quot;&gt;NO&lt;/font&gt;&lt;/b&gt;" style="text;html=1;align=center;verticalAlign=middle;resizable=0;points=[];autosize=1;strokeColor=none;fillColor=none;" parent="1" vertex="1">
          <mxGeometry x="435" y="535" width="40" height="30" as="geometry" />
        </mxCell>
        <mxCell id="Qf1n-6LqZpKv2LMZS_Yj-31" value="&lt;font style=&quot;font-size: 14px;&quot;&gt;&lt;b&gt;SLACK&lt;/b&gt;&lt;/font&gt;" style="text;html=1;align=center;verticalAlign=middle;resizable=0;points=[];autosize=1;strokeColor=none;fillColor=none;" parent="1" vertex="1">
          <mxGeometry x="605" y="694" width="70" height="30" as="geometry" />
        </mxCell>
        <mxCell id="Qf1n-6LqZpKv2LMZS_Yj-33" value="4. ENRICH IOCS" style="text;html=1;align=center;verticalAlign=middle;resizable=0;points=[];autosize=1;strokeColor=none;fillColor=none;" parent="1" vertex="1">
          <mxGeometry x="634" y="354" width="120" height="30" as="geometry" />
        </mxCell>
        <mxCell id="Qf1n-6LqZpKv2LMZS_Yj-37" value="&lt;font style=&quot;font-size: 12px;&quot;&gt;1. GENERATES&amp;nbsp;&lt;/font&gt;&lt;div&gt;&lt;font style=&quot;font-size: 12px;&quot;&gt;TELEMETRY&lt;/font&gt;&lt;/div&gt;" style="text;html=1;align=center;verticalAlign=middle;resizable=0;points=[];autosize=1;strokeColor=none;fillColor=none;" parent="1" vertex="1">
          <mxGeometry x="122" y="605" width="110" height="40" as="geometry" />
        </mxCell>
        <mxCell id="Qf1n-6LqZpKv2LMZS_Yj-38" value="2. DETECTS THE NEW PROCESS" style="text;html=1;align=center;verticalAlign=middle;resizable=0;points=[];autosize=1;strokeColor=none;fillColor=none;rotation=90;" parent="1" vertex="1">
          <mxGeometry x="200" y="450" width="210" height="30" as="geometry" />
        </mxCell>
        <mxCell id="Qf1n-6LqZpKv2LMZS_Yj-40" value="3. SENDS ALERT MESSAGE" style="text;html=1;align=center;verticalAlign=middle;resizable=0;points=[];autosize=1;strokeColor=none;fillColor=none;" parent="1" vertex="1">
          <mxGeometry x="360" y="238" width="180" height="30" as="geometry" />
        </mxCell>
        <mxCell id="Qf1n-6LqZpKv2LMZS_Yj-12" value="&lt;span style=&quot;font-size: 14px;&quot;&gt;&lt;b&gt;LIMACHARLIE&lt;/b&gt;&lt;/span&gt;" style="text;html=1;align=center;verticalAlign=middle;resizable=0;points=[];autosize=1;strokeColor=none;fillColor=#FFFFFF;" parent="1" vertex="1">
          <mxGeometry x="233" y="321" width="114" height="29" as="geometry" />
        </mxCell>
        <mxCell id="Qf1n-6LqZpKv2LMZS_Yj-43" value="5. DECISON&lt;div&gt;&amp;nbsp;OF&amp;nbsp;&lt;div&gt;ANALYST&lt;/div&gt;&lt;/div&gt;" style="text;html=1;align=center;verticalAlign=middle;resizable=0;points=[];autosize=1;strokeColor=none;fillColor=none;" parent="1" vertex="1">
          <mxGeometry x="486" y="430" width="86" height="55" as="geometry" />
        </mxCell>
        <mxCell id="Qf1n-6LqZpKv2LMZS_Yj-45" value="6. RUNS SCRIPT TO QUARANTINE" style="text;html=1;align=center;verticalAlign=middle;resizable=0;points=[];autosize=1;strokeColor=none;fillColor=none;rotation=0;" parent="1" vertex="1">
          <mxGeometry x="360" y="289.5" width="214" height="26" as="geometry" />
        </mxCell>
        <mxCell id="Qf1n-6LqZpKv2LMZS_Yj-46" style="edgeStyle=orthogonalEdgeStyle;rounded=0;orthogonalLoop=1;jettySize=auto;html=1;exitX=0.316;exitY=0.897;exitDx=0;exitDy=0;exitPerimeter=0;entryX=0.29;entryY=0.013;entryDx=0;entryDy=0;entryPerimeter=0;" parent="1" source="Qf1n-6LqZpKv2LMZS_Yj-12" target="Qf1n-6LqZpKv2LMZS_Yj-2" edge="1">
          <mxGeometry relative="1" as="geometry">
            <mxPoint x="269" y="571" as="targetPoint" />
          </mxGeometry>
        </mxCell>
        <mxCell id="gsvBftsWmA4iTi50btW6-1" value="" style="fontColor=#0066CC;verticalAlign=top;verticalLabelPosition=bottom;labelPosition=center;align=center;html=1;outlineConnect=0;fillColor=#CCCCCC;strokeColor=#6881B3;gradientColor=none;gradientDirection=north;strokeWidth=2;shape=mxgraph.networks.virus;" vertex="1" parent="1">
          <mxGeometry x="46" y="643" width="100" height="90" as="geometry" />
        </mxCell>
        <mxCell id="gsvBftsWmA4iTi50btW6-2" style="rounded=0;orthogonalLoop=1;jettySize=auto;html=1;entryX=0.03;entryY=0.745;entryDx=0;entryDy=0;entryPerimeter=0;" edge="1" parent="1" source="gsvBftsWmA4iTi50btW6-1" target="Qf1n-6LqZpKv2LMZS_Yj-2">
          <mxGeometry relative="1" as="geometry">
            <Array as="points" />
          </mxGeometry>
        </mxCell>
        <mxCell id="gsvBftsWmA4iTi50btW6-3" value="&lt;font style=&quot;font-size: 14px;&quot;&gt;&lt;b&gt;Mimikatz&lt;/b&gt;&lt;/font&gt;" style="text;html=1;align=center;verticalAlign=middle;resizable=0;points=[];autosize=1;strokeColor=none;fillColor=none;" vertex="1" parent="1">
          <mxGeometry x="61" y="740" width="77" height="29" as="geometry" />
        </mxCell>
        <mxCell id="gsvBftsWmA4iTi50btW6-5" value="" style="edgeStyle=orthogonalEdgeStyle;rounded=0;orthogonalLoop=1;jettySize=auto;html=1;" edge="1" parent="1" source="gsvBftsWmA4iTi50btW6-8" target="Qf1n-6LqZpKv2LMZS_Yj-11">
          <mxGeometry relative="1" as="geometry" />
        </mxCell>
        <mxCell id="gsvBftsWmA4iTi50btW6-4" value="" style="image;aspect=fixed;perimeter=ellipsePerimeter;html=1;align=center;shadow=0;dashed=0;fontColor=#4277BB;labelBackgroundColor=default;fontSize=12;spacingTop=3;image=img/lib/ibm/applications/automation_tools.svg;" vertex="1" parent="1">
          <mxGeometry x="593.5" y="223.5" width="93" height="93" as="geometry" />
        </mxCell>
        <mxCell id="Qf1n-6LqZpKv2LMZS_Yj-11" value="" style="aspect=fixed;sketch=0;html=1;dashed=0;whitespace=wrap;verticalLabelPosition=bottom;verticalAlign=top;fillColor=#2875E2;strokeColor=#ffffff;points=[[0.005,0.63,0],[0.1,0.2,0],[0.9,0.2,0],[0.5,0,0],[0.995,0.63,0],[0.72,0.99,0],[0.5,1,0],[0.28,0.99,0]];shape=mxgraph.kubernetes.icon2;prIcon=api" parent="1" vertex="1">
          <mxGeometry x="577.5" y="402" width="125" height="120" as="geometry" />
        </mxCell>
        <mxCell id="gsvBftsWmA4iTi50btW6-8" value="&lt;b&gt;&lt;font style=&quot;font-size: 14px;&quot;&gt;TINES SOAR&lt;/font&gt;&lt;/b&gt;" style="text;html=1;align=center;verticalAlign=middle;resizable=0;points=[];autosize=1;strokeColor=none;fillColor=none;" vertex="1" parent="1">
          <mxGeometry x="588.5" y="315.5" width="104" height="29" as="geometry" />
        </mxCell>
        <mxCell id="gsvBftsWmA4iTi50btW6-12" style="edgeStyle=orthogonalEdgeStyle;rounded=0;orthogonalLoop=1;jettySize=auto;html=1;exitX=0;exitY=0.75;exitDx=0;exitDy=0;entryX=1;entryY=0.71;entryDx=0;entryDy=0;entryPerimeter=0;" edge="1" parent="1" source="gsvBftsWmA4iTi50btW6-4">
          <mxGeometry relative="1" as="geometry">
            <mxPoint x="345" y="291" as="targetPoint" />
          </mxGeometry>
        </mxCell>
        <mxCell id="gsvBftsWmA4iTi50btW6-13" style="edgeStyle=orthogonalEdgeStyle;rounded=0;orthogonalLoop=1;jettySize=auto;html=1;entryX=0.005;entryY=0.362;entryDx=0;entryDy=0;entryPerimeter=0;exitX=0.5;exitY=0;exitDx=0;exitDy=0;" edge="1" parent="1" source="Qf1n-6LqZpKv2LMZS_Yj-23" target="gsvBftsWmA4iTi50btW6-8">
          <mxGeometry relative="1" as="geometry">
            <Array as="points">
              <mxPoint x="430" y="439" />
              <mxPoint x="430" y="326" />
            </Array>
          </mxGeometry>
        </mxCell>
        <mxCell id="gsvBftsWmA4iTi50btW6-14" value="7. QUARANTINES THE MACHINE" style="text;html=1;align=center;verticalAlign=middle;resizable=0;points=[];autosize=1;strokeColor=none;fillColor=none;rotation=90;" vertex="1" parent="1">
          <mxGeometry x="148" y="452" width="204" height="26" as="geometry" />
        </mxCell>
        <mxCell id="gsvBftsWmA4iTi50btW6-15" value="" style="sketch=0;points=[[0,0,0],[0.25,0,0],[0.5,0,0],[0.75,0,0],[1,0,0],[0,1,0],[0.25,1,0],[0.5,1,0],[0.75,1,0],[1,1,0],[0,0.25,0],[0,0.5,0],[0,0.75,0],[1,0.25,0],[1,0.5,0],[1,0.75,0]];outlineConnect=0;fontColor=#232F3E;fillColor=#DD344C;strokeColor=#ffffff;dashed=0;verticalLabelPosition=bottom;verticalAlign=top;align=center;html=1;fontSize=12;fontStyle=0;aspect=fixed;shape=mxgraph.aws4.resourceIcon;resIcon=mxgraph.aws4.security_incident_response;" vertex="1" parent="1">
          <mxGeometry x="240" y="225" width="96" height="96" as="geometry" />
        </mxCell>
      </root>
    </mxGraphModel>
  </diagram>
</mxfile>
